PathFileType	4	(X/Y/Z)	SUBJ94_4_walk_RCNL2025.trc
DataRate	CameraRate	NumFrames	NumMarkers	Units	OrigDataRate	OrigDataStartFrame	OrigNumFrames
100	100	4	25	mm	100	149	297
Frame#	Time	R_Shoulder			L_Shoulder			C7			J_Notch			R_Elbow			L_Elbow			R_Wrist			L_Wrist			R_Asis			L_Asis			Sacral			Thoracic			Sternum			R_Thigh_Lateral			R_Knee_Lateral			R_Shank_Lateral			R_Ankle_Lateral			R_Heel			R_Toe			L_Thigh_Lateral			L_Knee_Lateral			L_Shank_Lateral			L_Ankle_Lateral			L_Heel			L_Toe		
		X1	Y1	Z1	X2	Y2	Z2	X3	Y3	Z3	X4	Y4	Z4	X5	Y5	Z5	X6	Y6	Z6	X7	Y7	Z7	X8	Y8	Z8	X9	Y9	Z9	X10	Y10	Z10	X11	Y11	Z11	X12	Y12	Z12	X13	Y13	Z13	X14	Y14	Z14	X15	Y15	Z15	X16	Y16	Z16	X17	Y17	Z17	X18	Y18	Z18	X19	Y19	Z19	X20	Y20	Z20	X21	Y21	Z21	X22	Y22	Z22	X23	Y23	Z23	X24	Y24	Z24	X25	Y25	Z25
149	1.48000000	289.187439	1260.074341	-190.876389	289.713104	1259.954834	-572.432007	225.026077	1341.111938	-383.711578	339.970551	1252.892944	-385.731995	248.850204	977.573425	-108.773315	241.137009	974.610352	-628.942322	349.526794	775.034668	-106.448215	381.476212	790.780975	-647.270752	348.706512	871.888062	-259.682068	352.755341	867.705383	-485.746948	158.872223	925.271362	-383.529205	162.004440	1139.119263	-384.427856	377.170349	1060.189697	-369.915161	405.377502	542.695496	-200.159302	429.346710	457.499420	-256.901489	366.817963	293.239594	-214.104996	279.818329	106.997437	-287.443481	240.237106	117.043091	-339.050476	398.760010	49.195938	-306.803833	253.433548	526.421936	-560.291687	231.179504	430.908936	-498.861511	206.873367	246.647018	-547.652588	169.889221	52.867092	-432.555450	128.789505	46.633785	-383.393280	293.548340	38.695454	-404.904327
150	1.49000000	299.547546	1258.562256	-190.799973	302.774445	1259.271606	-572.235718	237.247284	1340.243408	-384.020020	351.726624	1251.464111	-385.498047	256.060791	976.349121	-109.058708	255.397369	973.767212	-629.061890	354.735733	772.862915	-105.964470	397.854416	791.481567	-645.624268	360.883209	871.250977	-260.528717	363.562378	866.019958	-486.648987	170.288254	924.634949	-383.257904	173.267441	1138.492798	-385.006561	388.263428	1058.752563	-370.182495	420.286072	543.468140	-200.423523	444.315674	458.276123	-257.346130	390.940002	289.702362	-214.172623	316.047729	99.031166	-287.599487	276.214630	106.765297	-339.447021	438.292297	48.133465	-306.987030	260.891357	525.527954	-559.990601	237.265060	430.447784	-498.298065	210.562164	246.499100	-546.990479	170.308502	53.291290	-431.929565	129.226410	47.365440	-382.643616	293.830505	38.547131	-404.680542
151	1.50000000	309.950073	1256.863770	-190.733292	315.968994	1258.489746	-572.004211	249.554947	1339.255981	-384.308228	363.576233	1249.872314	-385.263031	263.329437	974.957092	-109.419685	269.522369	972.895325	-629.177307	360.091187	770.579987	-105.581886	414.048279	792.165771	-643.893250	373.187134	870.460510	-261.337982	374.442108	864.269470	-487.533813	181.797333	923.856140	-382.839600	184.587479	1137.761108	-385.557739	399.419800	1057.136353	-370.504974	434.367004	543.684509	-200.445831	458.500610	458.565247	-257.552063	414.479980	286.254456	-214.140991	352.455963	91.757217	-287.838043	312.492188	97.193710	-339.920532	477.517395	47.854752	-307.277863	268.342010	524.632568	-559.670410	243.444946	429.988129	-497.710052	214.184128	246.383347	-546.302307	170.722458	53.788681	-431.238953	129.673294	48.200962	-381.798737	294.108582	38.424728	-404.465118
152	1.51000000	320.401459	1254.991211	-190.664764	329.303070	1257.622925	-571.728577	261.949188	1338.162231	-384.567169	375.526764	1248.132935	-385.013672	270.674164	973.402466	-109.865318	283.498993	972.014526	-629.296204	365.603668	768.185242	-105.303616	430.032806	792.841705	-642.089722	385.625488	869.538269	-262.099213	385.409973	862.472656	-488.394806	193.413513	922.945374	-382.282043	195.977478	1136.934082	-386.077240	410.652374	1055.355713	-370.855316	447.594482	543.324158	-200.248245	471.952118	458.369202	-257.543030	437.398041	282.936340	-214.024643	388.792450	85.252754	-288.149811	348.777008	88.431160	-340.435242	516.209106	48.412086	-307.722046	275.741913	523.757629	-559.332031	249.689041	429.539612	-497.108337	217.695404	246.317093	-545.597351	171.123413	54.372211	-430.491455	130.122757	49.151146	-380.871063	294.384308	38.331242	-404.262115
